Medium.ufo
<glyph name="hsmallmod" format="2">
  <advance width="500" height="1000"/>
  <unicode hex="02B0"/>
  <outline>
    <contour>
      <point x="200" y="574" type="line"/>
      <point x="204" y="578"/>
      <point x="222" y="588" type="qcurve"/>
      <point x="245" y="600"/>
      <point x="276" y="600" type="qcurve"/>
      <point x="369" y="600"/>
      <point x="369" y="489" type="qcurve"/>
      <point x="369" y="393"/>
      <point x="370" y="340" type="qcurve"/>
      <point x="370" y="318"/>
      <point x="349" y="318" type="qcurve"/>
      <point x="332" y="318"/>
      <point x="301" y="331"/>
      <point x="301" y="349" type="qcurve"/>
      <point x="301" y="363" type="line"/>
      <point x="302" y="398"/>
      <point x="302" y="487" type="qcurve"/>
      <point x="302" y="513"/>
      <point x="291" y="535"/>
      <point x="278" y="535" type="qcurve"/>
      <point x="246" y="535"/>
      <point x="201" y="488"/>
      <point x="200" y="422" type="qcurve"/>
      <point x="200" y="371"/>
      <point x="201" y="341" type="qcurve"/>
      <point x="201" y="318"/>
      <point x="180" y="318" type="qcurve"/>
      <point x="163" y="318"/>
      <point x="132" y="331"/>
      <point x="132" y="349" type="qcurve"/>
      <point x="133" y="398" type="line"/>
      <point x="133" y="636" type="line"/>
      <point x="131" y="689" type="line"/>
      <point x="131" y="711"/>
      <point x="153" y="711" type="qcurve"/>
      <point x="169" y="711"/>
      <point x="201" y="698"/>
      <point x="201" y="680" type="qcurve"/>
    </contour>
  </outline>
</glyph>
<glyph name="jsmallmod" format="2">
  <advance width="500" height="1000"/>
  <unicode hex="02B2"/>
  <outline>
    <contour>
      <point x="303" y="619" type="qcurve"/>
      <point x="285" y="619"/>
      <point x="263" y="650"/>
      <point x="263" y="665" type="qcurve"/>
      <point x="263" y="680"/>
      <point x="283" y="705"/>
      <point x="303" y="705" type="qcurve"/>
      <point x="321" y="705"/>
      <point x="343" y="673"/>
      <point x="343" y="658" type="qcurve"/>
      <point x="343" y="643"/>
      <point x="322" y="619"/>
    </contour>
    <contour>
      <point x="226" y="236" type="qcurve"/>
      <point x="161" y="236"/>
      <point x="136" y="299" type="qcurve"/>
      <point x="136" y="313"/>
      <point x="157" y="342"/>
      <point x="173" y="342" type="qcurve"/>
      <point x="194" y="342"/>
      <point x="198" y="324" type="qcurve"/>
      <point x="203" y="309"/>
      <point x="214" y="299"/>
      <point x="226" y="299" type="qcurve"/>
      <point x="252" y="299"/>
      <point x="267" y="327" type="qcurve"/>
      <point x="274" y="342"/>
      <point x="274" y="365" type="qcurve"/>
      <point x="274" y="535" type="line"/>
      <point x="268" y="535"/>
      <point x="222" y="535"/>
      <point x="217" y="534" type="qcurve"/>
      <point x="195" y="534"/>
      <point x="183" y="567"/>
      <point x="183" y="577" type="qcurve"/>
      <point x="183" y="601"/>
      <point x="209" y="601" type="qcurve"/>
      <point x="223" y="598"/>
      <point x="240" y="598" type="qcurve"/>
      <point x="289" y="598"/>
      <point x="303" y="603" type="qcurve"/>
      <point x="329" y="603"/>
      <point x="337" y="579" type="qcurve"/>
      <point x="342" y="572"/>
      <point x="342" y="564" type="qcurve"/>
      <point x="342" y="558"/>
      <point x="339" y="551"/>
      <point x="339" y="548" type="qcurve"/>
      <point x="338" y="365" type="line"/>
      <point x="338" y="326"/>
      <point x="310" y="269"/>
      <point x="258" y="236"/>
    </contour>
  </outline>
</glyph>
<glyph name="rsmallmod" format="2">
  <advance width="500" height="1000"/>
  <unicode hex="02B3"/>
  <outline>
    <contour>
      <point x="216" y="319" type="qcurve"/>
      <point x="204" y="319"/>
      <point x="173" y="331"/>
      <point x="173" y="349" type="qcurve"/>
      <point x="174" y="393" type="line"/>
      <point x="174" y="523" type="line"/>
      <point x="172" y="577" type="line"/>
      <point x="172" y="598"/>
      <point x="197" y="598" type="qcurve"/>
      <point x="209" y="598"/>
      <point x="237" y="587"/>
      <point x="240" y="587" type="qcurve"/>
      <point x="241" y="587" type="line"/>
      <point x="250" y="599"/>
      <point x="291" y="599" type="qcurve"/>
      <point x="314" y="599"/>
      <point x="345" y="587"/>
      <point x="370" y="567"/>
      <point x="370" y="552" type="qcurve"/>
      <point x="370" y="540"/>
      <point x="350" y="511"/>
      <point x="337" y="511" type="qcurve"/>
      <point x="323" y="511"/>
      <point x="315" y="524" type="qcurve"/>
      <point x="313" y="528"/>
      <point x="299" y="534"/>
      <point x="295" y="534" type="qcurve"/>
      <point x="247" y="534"/>
      <point x="241" y="471" type="qcurve"/>
      <point x="239" y="454"/>
      <point x="239" y="393" type="qcurve"/>
      <point x="241" y="340" type="line"/>
      <point x="241" y="319"/>
    </contour>
  </outline>
</glyph>
<glyph name="lsmallmod" format="2">
  <advance width="500" height="1000"/>
  <unicode hex="02E1"/>
  <outline>
    <contour>
      <point x="295" y="312" type="qcurve"/>
      <point x="254" y="312"/>
      <point x="219" y="361"/>
      <point x="219" y="410" type="qcurve"/>
      <point x="218" y="666" type="line"/>
      <point x="199" y="664"/>
      <point x="163" y="664"/>
      <point x="154" y="663" type="qcurve"/>
      <point x="140" y="663"/>
      <point x="124" y="696"/>
      <point x="124" y="708" type="qcurve"/>
      <point x="124" y="728"/>
      <point x="139" y="728" type="qcurve"/>
      <point x="165" y="724"/>
      <point x="173" y="724" type="qcurve"/>
      <point x="221" y="724"/>
      <point x="249" y="731" type="qcurve"/>
      <point x="269" y="731"/>
      <point x="280" y="708" type="qcurve"/>
      <point x="286" y="699"/>
      <point x="286" y="690" type="qcurve"/>
      <point x="286" y="683"/>
      <point x="282" y="674"/>
      <point x="282" y="408" type="qcurve"/>
      <point x="282" y="384"/>
      <point x="288" y="373"/>
      <point x="302" y="373" type="qcurve"/>
      <point x="333" y="373"/>
      <point x="374" y="400" type="qcurve"/>
      <point x="388" y="411"/>
      <point x="397" y="411" type="qcurve"/>
      <point x="410" y="411"/>
      <point x="410" y="395" type="qcurve"/>
      <point x="410" y="385"/>
      <point x="390" y="359"/>
      <point x="358" y="331"/>
      <point x="314" y="312"/>
    </contour>
  </outline>
</glyph>
<glyph name="ssmallmod" format="2">
  <advance width="500" height="1000"/>
  <unicode hex="02E2"/>
  <outline>
    <contour>
      <point x="253" y="315" type="qcurve"/>
      <point x="221" y="315"/>
      <point x="176" y="331"/>
      <point x="149" y="353"/>
      <point x="135" y="376"/>
      <point x="135" y="387" type="qcurve"/>
      <point x="135" y="397"/>
      <point x="159" y="424"/>
      <point x="173" y="424" type="qcurve"/>
      <point x="187" y="424"/>
      <point x="196" y="402"/>
      <point x="202" y="394" type="qcurve"/>
      <point x="214" y="378"/>
      <point x="253" y="378" type="qcurve"/>
      <point x="277" y="378"/>
      <point x="299" y="395"/>
      <point x="299" y="405" type="qcurve"/>
      <point x="299" y="415"/>
      <point x="288" y="428"/>
      <point x="266" y="433" type="qcurve"/>
      <point x="216" y="445" type="line"/>
      <point x="147" y="461"/>
      <point x="147" y="519" type="qcurve"/>
      <point x="147" y="544"/>
      <point x="163" y="564" type="qcurve"/>
      <point x="195" y="601"/>
      <point x="255" y="601" type="qcurve"/>
      <point x="314" y="601"/>
      <point x="347" y="564" type="qcurve"/>
      <point x="354" y="559"/>
      <point x="354" y="547" type="qcurve"/>
      <point x="354" y="536"/>
      <point x="335" y="508"/>
      <point x="322" y="508" type="qcurve"/>
      <point x="309" y="508"/>
      <point x="299" y="522" type="qcurve"/>
      <point x="288" y="539"/>
      <point x="256" y="539" type="qcurve"/>
      <point x="232" y="539"/>
      <point x="214" y="525"/>
      <point x="214" y="520" type="qcurve"/>
      <point x="214" y="514"/>
      <point x="219" y="509"/>
      <point x="235" y="505" type="qcurve"/>
      <point x="282" y="494" type="line"/>
      <point x="319" y="486"/>
      <point x="366" y="444"/>
      <point x="366" y="405" type="qcurve"/>
      <point x="366" y="379"/>
      <point x="336" y="338"/>
      <point x="285" y="315"/>
    </contour>
  </outline>
</glyph>
<glyph name="xsmallmod" format="2">
  <advance width="500" height="1000"/>
  <unicode hex="02E3"/>
  <outline>
    <contour>
      <point x="169" y="318" type="qcurve"/>
      <point x="156" y="318"/>
      <point x="126" y="329"/>
      <point x="126" y="345" type="qcurve"/>
      <point x="126" y="353"/>
      <point x="142" y="369"/>
      <point x="163" y="395" type="qcurve"/>
      <point x="212" y="462" type="line"/>
      <point x="166" y="526" type="line"/>
      <point x="154" y="542"/>
      <point x="135" y="560"/>
      <point x="135" y="568" type="qcurve"/>
      <point x="135" y="583"/>
      <point x="167" y="596"/>
      <point x="178" y="596" type="qcurve"/>
      <point x="197" y="596"/>
      <point x="211" y="569"/>
      <point x="251" y="514" type="qcurve"/>
      <point x="287" y="563" type="line"/>
      <point x="291" y="569"/>
      <point x="299" y="582"/>
      <point x="307" y="598"/>
      <point x="325" y="598" type="qcurve"/>
      <point x="336" y="598"/>
      <point x="368" y="585"/>
      <point x="368" y="570" type="qcurve"/>
      <point x="368" y="562"/>
      <point x="352" y="546"/>
      <point x="337" y="528" type="qcurve"/>
      <point x="289" y="462" type="line"/>
      <point x="338" y="396" type="line"/>
      <point x="343" y="388"/>
      <point x="374" y="354"/>
      <point x="374" y="346" type="qcurve"/>
      <point x="374" y="331"/>
      <point x="344" y="319"/>
      <point x="331" y="319" type="qcurve"/>
      <point x="312" y="319"/>
      <point x="304" y="332" type="qcurve"/>
      <point x="291" y="354"/>
      <point x="251" y="410" type="qcurve"/>
      <point x="213" y="359" type="line"/>
      <point x="195" y="331" type="line"/>
      <point x="187" y="318"/>
    </contour>
  </outline>
</glyph>
<glyph name="Dmod" format="2">
  <advance width="500" height="1000"/>
  <unicode hex="1D30"/>
  <outline>
    <contour>
      <point x="173" y="376" type="line"/>
      <point x="226" y="377"/>
      <point x="314" y="416"/>
      <point x="354" y="479"/>
      <point x="354" y="514" type="qcurve"/>
      <point x="354" y="578"/>
      <point x="270" y="649"/>
      <point x="218" y="649" type="qcurve"/>
      <point x="188" y="649"/>
      <point x="173" y="645" type="qcurve"/>
    </contour>
    <contour>
      <point x="160" y="320" type="qcurve"/>
      <point x="78" y="320"/>
      <point x="78" y="347" type="qcurve"/>
      <point x="78" y="373"/>
      <point x="106" y="373" type="qcurve"/>
      <point x="106" y="639" type="line"/>
      <point x="106" y="640"/>
      <point x="86" y="663"/>
      <point x="86" y="674" type="qcurve"/>
      <point x="86" y="707"/>
      <point x="220" y="712" type="qcurve"/>
      <point x="303" y="712"/>
      <point x="421" y="605"/>
      <point x="421" y="520" type="qcurve"/>
      <point x="421" y="435"/>
      <point x="369" y="384" type="qcurve"/>
      <point x="325" y="340"/>
      <point x="259" y="328" type="qcurve"/>
      <point x="219" y="321"/>
    </contour>
  </outline>
</glyph>
<glyph name="Emod" format="2">
  <advance width="500" height="1000"/>
  <unicode hex="1D31"/>
  <outline>
    <contour>
      <point x="161" y="319" type="qcurve"/>
      <point x="146" y="319"/>
      <point x="124" y="346"/>
      <point x="124" y="359" type="qcurve"/>
      <point x="128" y="383" type="line"/>
      <point x="128" y="503" type="line"/>
      <point x="126" y="504"/>
      <point x="114" y="528"/>
      <point x="114" y="536" type="qcurve"/>
      <point x="114" y="557"/>
      <point x="128" y="558" type="qcurve"/>
      <point x="128" y="657" type="line"/>
      <point x="126" y="682" type="line"/>
      <point x="126" y="705"/>
      <point x="149" y="705" type="qcurve"/>
      <point x="159" y="705"/>
      <point x="177" y="699" type="qcurve"/>
      <point x="310" y="708" type="line"/>
      <point x="353" y="712" type="line"/>
      <point x="369" y="712"/>
      <point x="385" y="683"/>
      <point x="385" y="671" type="qcurve"/>
      <point x="385" y="647"/>
      <point x="363" y="647" type="qcurve"/>
      <point x="326" y="647"/>
      <point x="194" y="638" type="qcurve"/>
      <point x="194" y="558" type="line"/>
      <point x="282" y="564" type="line"/>
      <point x="293" y="565"/>
      <point x="319" y="568"/>
      <point x="326" y="568" type="qcurve"/>
      <point x="342" y="568"/>
      <point x="358" y="539"/>
      <point x="358" y="526" type="qcurve"/>
      <point x="358" y="502"/>
      <point x="335" y="502" type="qcurve"/>
      <point x="284" y="502"/>
      <point x="194" y="497" type="qcurve"/>
      <point x="194" y="385" type="line"/>
      <point x="369" y="389" type="line"/>
      <point x="385" y="389"/>
      <point x="401" y="360"/>
      <point x="401" y="347" type="qcurve"/>
      <point x="401" y="323"/>
      <point x="379" y="323" type="qcurve"/>
      <point x="335" y="324" type="line"/>
      <point x="188" y="322" type="line"/>
      <point x="182" y="322"/>
      <point x="171" y="319"/>
    </contour>
  </outline>
</glyph>
<glyph name="Hmod" format="2">
  <advance width="500" height="1000"/>
  <unicode hex="1D34"/>
  <outline>
    <contour>
      <point x="155" y="318" type="qcurve"/>
      <point x="143" y="318"/>
      <point x="111" y="331"/>
      <point x="111" y="348" type="qcurve"/>
      <point x="112" y="393" type="line"/>
      <point x="112" y="496" type="line"/>
      <point x="106" y="498"/>
      <point x="92" y="525"/>
      <point x="92" y="536" type="qcurve"/>
      <point x="92" y="560"/>
      <point x="112" y="560" type="qcurve"/>
      <point x="112" y="634"/>
      <point x="111" y="687" type="qcurve"/>
      <point x="111" y="708"/>
      <point x="136" y="708" type="qcurve"/>
      <point x="149" y="708"/>
      <point x="180" y="696"/>
      <point x="180" y="678" type="qcurve"/>
      <point x="179" y="634" type="line"/>
      <point x="179" y="560" type="line"/>
      <point x="330" y="569" type="line"/>
      <point x="329" y="687" type="line"/>
      <point x="329" y="708"/>
      <point x="354" y="708" type="qcurve"/>
      <point x="367" y="708"/>
      <point x="398" y="696"/>
      <point x="398" y="678" type="qcurve"/>
      <point x="397" y="634" type="line"/>
      <point x="397" y="393" type="line"/>
      <point x="399" y="340" type="line"/>
      <point x="399" y="319"/>
      <point x="373" y="319" type="qcurve"/>
      <point x="361" y="319"/>
      <point x="329" y="331"/>
      <point x="329" y="349" type="qcurve"/>
      <point x="330" y="393" type="line"/>
      <point x="330" y="507" type="line"/>
      <point x="179" y="499" type="line"/>
      <point x="179" y="392" type="line"/>
      <point x="181" y="339" type="line"/>
      <point x="181" y="318"/>
    </contour>
  </outline>
</glyph>
<glyph name="Jmod" format="2">
  <advance width="500" height="1000"/>
  <unicode hex="1D36"/>
  <outline>
    <contour>
      <point x="230" y="315" type="qcurve"/>
      <point x="202" y="315"/>
      <point x="159" y="336"/>
      <point x="133" y="365"/>
      <point x="119" y="393"/>
      <point x="119" y="402" type="qcurve"/>
      <point x="119" y="412"/>
      <point x="133" y="431"/>
      <point x="153" y="442"/>
      <point x="162" y="442" type="qcurve"/>
      <point x="180" y="442"/>
      <point x="184" y="424" type="qcurve"/>
      <point x="194" y="380"/>
      <point x="229" y="380" type="qcurve"/>
      <point x="268" y="380"/>
      <point x="268" y="430" type="qcurve"/>
      <point x="268" y="634"/>
      <point x="266" y="687" type="qcurve"/>
      <point x="266" y="708"/>
      <point x="292" y="708" type="qcurve"/>
      <point x="304" y="708"/>
      <point x="336" y="696"/>
      <point x="336" y="678" type="qcurve"/>
      <point x="335" y="634" type="line"/>
      <point x="335" y="428" type="line"/>
      <point x="335" y="315"/>
    </contour>
  </outline>
</glyph>
<glyph name="Lmod" format="2">
  <advance width="500" height="1000"/>
  <unicode hex="1D38"/>
  <outline>
    <contour>
      <point x="187" y="319" type="qcurve"/>
      <point x="166" y="319"/>
      <point x="153" y="341" type="qcurve"/>
      <point x="147" y="350"/>
      <point x="147" y="358" type="qcurve"/>
      <point x="147" y="366"/>
      <point x="151" y="373"/>
      <point x="151" y="375" type="qcurve"/>
      <point x="151" y="634" type="line"/>
      <point x="149" y="687" type="line"/>
      <point x="149" y="708"/>
      <point x="175" y="708" type="qcurve"/>
      <point x="187" y="708"/>
      <point x="220" y="696"/>
      <point x="220" y="678" type="qcurve"/>
      <point x="219" y="634" type="line"/>
      <point x="219" y="386" type="line"/>
      <point x="241" y="388"/>
      <point x="362" y="388" type="qcurve"/>
      <point x="378" y="388"/>
      <point x="394" y="357"/>
      <point x="394" y="345" type="qcurve"/>
      <point x="394" y="321"/>
      <point x="371" y="321" type="qcurve"/>
      <point x="351" y="324"/>
      <point x="320" y="324" type="qcurve"/>
      <point x="206" y="324"/>
    </contour>
  </outline>
</glyph>
<glyph name="Mmod" format="2">
  <advance width="500" height="1000"/>
  <unicode hex="1D39"/>
  <outline>
    <contour>
      <point x="75" y="320" type="qcurve"/>
      <point x="41" y="320"/>
      <point x="41" y="348" type="qcurve"/>
      <point x="51" y="380"/>
      <point x="76" y="584"/>
      <point x="80" y="632"/>
      <point x="82" y="647" type="qcurve"/>
      <point x="83" y="674" type="line"/>
      <point x="83" y="692"/>
      <point x="116" y="707"/>
      <point x="127" y="707" type="qcurve"/>
      <point x="142" y="707"/>
      <point x="155" y="696"/>
      <point x="165" y="671" type="qcurve"/>
      <point x="227" y="510"/>
      <point x="244" y="473" type="qcurve"/>
      <point x="285" y="571"/>
      <point x="338" y="682" type="qcurve"/>
      <point x="341" y="689"/>
      <point x="351" y="712"/>
      <point x="368" y="712" type="qcurve"/>
      <point x="378" y="712"/>
      <point x="388" y="708" type="qcurve"/>
      <point x="420" y="697"/>
      <point x="420" y="678" type="qcurve"/>
      <point x="418" y="654" type="line"/>
      <point x="445" y="396"/>
      <point x="460" y="352" type="qcurve"/>
      <point x="460" y="347" type="line"/>
      <point x="460" y="331"/>
      <point x="431" y="321"/>
      <point x="421" y="321" type="qcurve"/>
      <point x="389" y="321"/>
      <point x="385" y="369"/>
      <point x="374" y="466"/>
      <point x="366" y="538"/>
      <point x="363" y="572" type="qcurve"/>
      <point x="362" y="585" type="line"/>
      <point x="318" y="494"/>
      <point x="287" y="414" type="qcurve"/>
      <point x="282" y="402"/>
      <point x="282" y="385"/>
      <point x="252" y="371"/>
      <point x="242" y="371" type="qcurve"/>
      <point x="214" y="371"/>
      <point x="203" y="410"/>
      <point x="189" y="442"/>
      <point x="158" y="519" type="qcurve"/>
      <point x="139" y="567" type="line"/>
      <point x="135" y="524"/>
      <point x="116" y="371"/>
      <point x="115" y="355"/>
      <point x="114" y="330"/>
      <point x="86" y="320"/>
    </contour>
  </outline>
</glyph>
<glyph name="Nmod" format="2">
  <advance width="500" height="1000"/>
  <unicode hex="1D3A"/>
  <outline>
    <contour>
      <point x="358" y="317" type="qcurve"/>
      <point x="340" y="317"/>
      <point x="325" y="338"/>
      <point x="313" y="356" type="qcurve"/>
      <point x="217" y="492"/>
      <point x="169" y="571" type="qcurve"/>
      <point x="169" y="392" type="line"/>
      <point x="171" y="339" type="line"/>
      <point x="171" y="318"/>
      <point x="146" y="318" type="qcurve"/>
      <point x="134" y="318"/>
      <point x="102" y="331"/>
      <point x="102" y="348" type="qcurve"/>
      <point x="103" y="393" type="line"/>
      <point x="103" y="658" type="line"/>
      <point x="99" y="677" type="line"/>
      <point x="99" y="697"/>
      <point x="135" y="710"/>
      <point x="143" y="710" type="qcurve"/>
      <point x="150" y="710"/>
      <point x="164" y="707"/>
      <point x="170" y="697" type="qcurve"/>
      <point x="183" y="674"/>
      <point x="300" y="487"/>
      <point x="333" y="442" type="qcurve"/>
      <point x="333" y="634" type="line"/>
      <point x="331" y="687" type="line"/>
      <point x="331" y="708"/>
      <point x="356" y="708" type="qcurve"/>
      <point x="369" y="708"/>
      <point x="400" y="696"/>
      <point x="400" y="678" type="qcurve"/>
      <point x="399" y="634" type="line"/>
      <point x="399" y="383" type="line"/>
      <point x="401" y="356" type="line"/>
      <point x="401" y="345"/>
      <point x="394" y="335" type="qcurve"/>
      <point x="375" y="317"/>
    </contour>
  </outline>
</glyph>
<glyph name="Pmod" format="2">
  <advance width="500" height="1000"/>
  <unicode hex="1D3E"/>
  <outline>
    <contour>
      <point x="199" y="540" type="line"/>
      <point x="269" y="544"/>
      <point x="331" y="586"/>
      <point x="331" y="610" type="qcurve"/>
      <point x="331" y="648"/>
      <point x="254" y="648" type="qcurve"/>
      <point x="221" y="648"/>
      <point x="199" y="642" type="qcurve"/>
    </contour>
    <contour>
      <point x="175" y="318" type="qcurve"/>
      <point x="163" y="318"/>
      <point x="131" y="331"/>
      <point x="131" y="348" type="qcurve"/>
      <point x="132" y="398" type="line"/>
      <point x="132" y="633" type="line"/>
      <point x="121" y="647" type="line"/>
      <point x="109" y="661"/>
      <point x="109" y="673" type="qcurve"/>
      <point x="109" y="691"/>
      <point x="127" y="695" type="qcurve"/>
      <point x="211" y="711"/>
      <point x="242" y="711"/>
      <point x="255" y="711" type="qcurve"/>
      <point x="399" y="711"/>
      <point x="399" y="611" type="qcurve"/>
      <point x="399" y="562"/>
      <point x="366" y="532" type="qcurve"/>
      <point x="315" y="484"/>
      <point x="203" y="484" type="qcurve"/>
      <point x="199" y="484"/>
      <point x="199" y="485" type="qcurve"/>
      <point x="199" y="397" type="line"/>
      <point x="201" y="339" type="line"/>
      <point x="201" y="318"/>
    </contour>
  </outline>
</glyph>
<glyph name="Rmod" format="2">
  <advance width="500" height="1000"/>
  <unicode hex="1D3F"/>
  <outline>
    <contour>
      <point x="195" y="550" type="line"/>
      <point x="259" y="550"/>
      <point x="287" y="567" type="qcurve"/>
      <point x="301" y="576"/>
      <point x="318" y="598"/>
      <point x="318" y="608" type="qcurve"/>
      <point x="318" y="625"/>
      <point x="287" y="648"/>
      <point x="249" y="648" type="qcurve"/>
      <point x="209" y="648"/>
      <point x="195" y="644" type="qcurve"/>
    </contour>
    <contour>
      <point x="398" y="317" type="qcurve"/>
      <point x="355" y="317"/>
      <point x="298" y="364"/>
      <point x="254" y="413" type="qcurve"/>
      <point x="198" y="475"/>
      <point x="195" y="477" type="qcurve"/>
      <point x="196" y="339" type="line"/>
      <point x="196" y="318"/>
      <point x="171" y="318" type="qcurve"/>
      <point x="159" y="318"/>
      <point x="128" y="332"/>
      <point x="128" y="348" type="qcurve"/>
      <point x="129" y="398" type="line"/>
      <point x="129" y="632" type="line"/>
      <point x="125" y="632"/>
      <point x="111" y="656" type="qcurve"/>
      <point x="105" y="665"/>
      <point x="105" y="674" type="qcurve"/>
      <point x="105" y="691"/>
      <point x="132" y="697"/>
      <point x="158" y="700"/>
      <point x="207" y="710"/>
      <point x="253" y="710" type="qcurve"/>
      <point x="300" y="710"/>
      <point x="357" y="682"/>
      <point x="385" y="636"/>
      <point x="385" y="607" type="qcurve"/>
      <point x="385" y="578"/>
      <point x="351" y="530"/>
      <point x="294" y="498"/>
      <point x="263" y="496" type="qcurve"/>
      <point x="276" y="481" type="line"/>
      <point x="370" y="377"/>
      <point x="428" y="354"/>
      <point x="428" y="338" type="qcurve"/>
      <point x="428" y="317"/>
    </contour>
  </outline>
</glyph>
<glyph name="Tmod" format="2">
  <advance width="500" height="1000"/>
  <unicode hex="1D40"/>
  <outline>
    <contour>
      <point x="260" y="318" type="qcurve"/>
      <point x="247" y="318"/>
      <point x="215" y="331"/>
      <point x="215" y="349" type="qcurve"/>
      <point x="216" y="393" type="line"/>
      <point x="217" y="639" type="line"/>
      <point x="171" y="636" type="line"/>
      <point x="158" y="636"/>
      <point x="135" y="632"/>
      <point x="128" y="632" type="qcurve"/>
      <point x="112" y="632"/>
      <point x="95" y="662"/>
      <point x="95" y="674" type="qcurve"/>
      <point x="95" y="698"/>
      <point x="118" y="698" type="qcurve"/>
      <point x="153" y="697" type="line"/>
      <point x="329" y="707" type="line"/>
      <point x="372" y="711" type="line"/>
      <point x="389" y="711"/>
      <point x="404" y="681"/>
      <point x="404" y="669" type="qcurve"/>
      <point x="404" y="644"/>
      <point x="382" y="644" type="qcurve"/>
      <point x="342" y="646" type="line"/>
      <point x="284" y="643" type="line"/>
      <point x="284" y="393" type="line"/>
      <point x="286" y="340" type="line"/>
      <point x="286" y="318"/>
    </contour>
  </outline>
</glyph>
<glyph name="Umod" format="2">
  <advance width="500" height="1000"/>
  <unicode hex="1D41"/>
  <outline>
    <contour>
      <point x="244" y="315" type="qcurve"/>
      <point x="110" y="315"/>
      <point x="110" y="439" type="qcurve"/>
      <point x="110" y="633" type="line"/>
      <point x="108" y="687" type="line"/>
      <point x="108" y="709"/>
      <point x="135" y="709" type="qcurve"/>
      <point x="148" y="709"/>
      <point x="179" y="697"/>
      <point x="179" y="680" type="qcurve"/>
      <point x="178" y="632" type="line"/>
      <point x="178" y="445" type="line"/>
      <point x="178" y="406"/>
      <point x="210" y="378"/>
      <point x="244" y="378" type="qcurve"/>
      <point x="268" y="378"/>
      <point x="303" y="399"/>
      <point x="323" y="436"/>
      <point x="323" y="461" type="qcurve"/>
      <point x="323" y="637" type="line"/>
      <point x="322" y="688" type="line"/>
      <point x="322" y="710"/>
      <point x="348" y="710" type="qcurve"/>
      <point x="362" y="710"/>
      <point x="392" y="698"/>
      <point x="392" y="681" type="qcurve"/>
      <point x="391" y="637" type="line"/>
      <point x="391" y="455" type="line"/>
      <point x="391" y="414"/>
      <point x="353" y="350"/>
      <point x="287" y="315"/>
    </contour>
  </outline>
</glyph>
<glyph name="Wmod" format="2">
  <advance width="500" height="1000"/>
  <unicode hex="1D42"/>
  <outline>
    <contour>
      <point x="350" y="315" type="qcurve"/>
      <point x="334" y="315"/>
      <point x="307" y="338"/>
      <point x="301" y="359" type="qcurve"/>
      <point x="264" y="525"/>
      <point x="249" y="574" type="qcurve"/>
      <point x="248" y="571"/>
      <point x="205" y="415"/>
      <point x="191" y="367"/>
      <point x="187" y="350"/>
      <point x="177" y="315"/>
      <point x="155" y="315" type="qcurve"/>
      <point x="140" y="315"/>
      <point x="114" y="338"/>
      <point x="108" y="359" type="qcurve"/>
      <point x="43" y="633"/>
      <point x="19" y="680" type="qcurve"/>
      <point x="19" y="708"/>
      <point x="55" y="708" type="qcurve"/>
      <point x="88" y="708"/>
      <point x="93" y="686" type="qcurve"/>
      <point x="141" y="506"/>
      <point x="150" y="463" type="qcurve"/>
      <point x="151" y="466"/>
      <point x="189" y="596"/>
      <point x="209" y="665"/>
      <point x="211" y="701"/>
      <point x="244" y="701" type="qcurve"/>
      <point x="256" y="701"/>
      <point x="287" y="691"/>
      <point x="287" y="674" type="qcurve"/>
      <point x="288" y="671"/>
      <point x="298" y="636"/>
      <point x="342" y="471"/>
      <point x="345" y="456" type="qcurve"/>
      <point x="369" y="542"/>
      <point x="406" y="662"/>
      <point x="413" y="694" type="qcurve"/>
      <point x="417" y="711"/>
      <point x="437" y="711" type="qcurve"/>
      <point x="446" y="711"/>
      <point x="456" y="708" type="qcurve"/>
      <point x="484" y="697"/>
      <point x="484" y="673" type="qcurve"/>
      <point x="443" y="565"/>
      <point x="388" y="375" type="qcurve"/>
      <point x="380" y="339" type="line"/>
      <point x="373" y="315"/>
    </contour>
  </outline>
</glyph>
<glyph name="bsmallmod" format="2">
  <advance width="500" height="1000"/>
  <unicode hex="1D47"/>
  <outline>
    <contour>
      <point x="245" y="376" type="qcurve"/>
      <point x="268" y="376"/>
      <point x="316" y="430"/>
      <point x="316" y="476" type="qcurve"/>
      <point x="316" y="537"/>
      <point x="277" y="537" type="qcurve"/>
      <point x="265" y="537"/>
      <point x="233" y="519"/>
      <point x="206" y="479"/>
      <point x="203" y="443" type="qcurve"/>
      <point x="202" y="403" type="line"/>
      <point x="208" y="400"/>
      <point x="224" y="376"/>
    </contour>
    <contour>
      <point x="244" y="315" type="qcurve"/>
      <point x="206" y="315"/>
      <point x="192" y="334" type="qcurve"/>
      <point x="184" y="321"/>
      <point x="161" y="321" type="qcurve"/>
      <point x="137" y="321"/>
      <point x="137" y="347" type="qcurve"/>
      <point x="138" y="393" type="line"/>
      <point x="138" y="636" type="line"/>
      <point x="136" y="689" type="line"/>
      <point x="136" y="710"/>
      <point x="161" y="710" type="qcurve"/>
      <point x="173" y="710"/>
      <point x="205" y="698"/>
      <point x="205" y="680" type="qcurve"/>
      <point x="203" y="636" type="line"/>
      <point x="203" y="602" type="line"/>
      <point x="201" y="594"/>
      <point x="201" y="589" type="qcurve"/>
      <point x="201" y="579"/>
      <point x="209" y="579" type="qcurve"/>
      <point x="214" y="579"/>
      <point x="248" y="599"/>
      <point x="281" y="599" type="qcurve"/>
      <point x="325" y="599"/>
      <point x="382" y="536"/>
      <point x="382" y="483" type="qcurve"/>
      <point x="382" y="434"/>
      <point x="346" y="359"/>
      <point x="283" y="315"/>
    </contour>
  </outline>
</glyph>
<glyph name="dsmallmod" format="2">
  <advance width="500" height="1000"/>
  <unicode hex="1D48"/>
  <outline>
    <contour>
      <point x="213" y="377" type="qcurve"/>
      <point x="242" y="377"/>
      <point x="299" y="438"/>
      <point x="299" y="478" type="qcurve"/>
      <point x="299" y="514" type="line"/>
      <point x="297" y="515"/>
      <point x="292" y="522" type="qcurve"/>
      <point x="281" y="538"/>
      <point x="256" y="538" type="qcurve"/>
      <point x="246" y="538"/>
      <point x="219" y="521"/>
      <point x="208" y="506" type="qcurve"/>
      <point x="184" y="473"/>
      <point x="184" y="438" type="qcurve"/>
      <point x="184" y="403"/>
      <point x="203" y="377"/>
    </contour>
    <contour>
      <point x="299" y="590" type="qcurve"/>
      <point x="299" y="636" type="line"/>
      <point x="297" y="689" type="line"/>
      <point x="297" y="710"/>
      <point x="322" y="710" type="qcurve"/>
      <point x="334" y="710"/>
      <point x="365" y="698"/>
      <point x="365" y="680" type="qcurve"/>
      <point x="364" y="636" type="line"/>
      <point x="364" y="432" type="line"/>
      <point x="364" y="413"/>
      <point x="372" y="376"/>
      <point x="378" y="367" type="qcurve"/>
      <point x="382" y="361"/>
      <point x="382" y="354" type="qcurve"/>
      <point x="382" y="344"/>
      <point x="360" y="318"/>
      <point x="345" y="318" type="qcurve"/>
      <point x="319" y="318"/>
      <point x="309" y="356" type="qcurve"/>
      <point x="273" y="315"/>
      <point x="213" y="315" type="qcurve"/>
      <point x="172" y="315"/>
      <point x="118" y="378"/>
      <point x="118" y="433" type="qcurve"/>
      <point x="118" y="498"/>
      <point x="202" y="599"/>
      <point x="259" y="599" type="qcurve"/>
      <point x="280" y="599"/>
    </contour>
  </outline>
</glyph>
<glyph name="esmallmod" format="2">
  <advance width="500" height="1000"/>
  <unicode hex="1D49"/>
  <outline>
    <contour>
      <point x="203" y="484" type="qcurve"/>
      <point x="248" y="484"/>
      <point x="290" y="496" type="qcurve"/>
      <point x="304" y="500"/>
      <point x="307" y="504"/>
      <point x="307" y="511" type="qcurve"/>
      <point x="307" y="538"/>
      <point x="274" y="538" type="qcurve"/>
      <point x="247" y="538"/>
      <point x="205" y="489"/>
    </contour>
    <contour>
      <point x="237" y="315" type="qcurve"/>
      <point x="206" y="315"/>
      <point x="156" y="346"/>
      <point x="129" y="402"/>
      <point x="129" y="438" type="qcurve"/>
      <point x="129" y="437" type="line"/>
      <point x="118" y="445"/>
      <point x="118" y="461" type="qcurve"/>
      <point x="118" y="482"/>
      <point x="135" y="484" type="qcurve"/>
      <point x="140" y="516"/>
      <point x="220" y="601"/>
      <point x="274" y="601" type="qcurve"/>
      <point x="310" y="601"/>
      <point x="332" y="587" type="qcurve"/>
      <point x="374" y="564"/>
      <point x="374" y="511" type="qcurve"/>
      <point x="374" y="491"/>
      <point x="366" y="463"/>
      <point x="339" y="445"/>
      <point x="314" y="438" type="qcurve"/>
      <point x="263" y="422"/>
      <point x="195" y="422" type="qcurve"/>
      <point x="196" y="405"/>
      <point x="220" y="378"/>
      <point x="240" y="378" type="qcurve"/>
      <point x="295" y="378"/>
      <point x="329" y="415" type="qcurve"/>
      <point x="340" y="428"/>
      <point x="357" y="428" type="qcurve"/>
      <point x="376" y="428"/>
      <point x="376" y="410" type="qcurve"/>
      <point x="376" y="395"/>
      <point x="357" y="366"/>
      <point x="340" y="352" type="qcurve"/>
      <point x="299" y="315"/>
    </contour>
  </outline>
</glyph>
<glyph name="osmallmod" format="2">
  <advance width="500" height="1000"/>
  <unicode hex="1D52"/>
  <outline>
    <contour>
      <point x="244" y="379" type="qcurve"/>
      <point x="263" y="379"/>
      <point x="293" y="400"/>
      <point x="313" y="438"/>
      <point x="313" y="469" type="qcurve"/>
      <point x="313" y="499"/>
      <point x="288" y="537"/>
      <point x="260" y="537" type="qcurve"/>
      <point x="232" y="537"/>
      <point x="189" y="480"/>
      <point x="189" y="445" type="qcurve"/>
      <point x="189" y="410"/>
      <point x="217" y="379"/>
    </contour>
    <contour>
      <point x="247" y="315" type="qcurve"/>
      <point x="186" y="315"/>
      <point x="121" y="386"/>
      <point x="121" y="444" type="qcurve"/>
      <point x="121" y="489"/>
      <point x="148" y="536" type="qcurve"/>
      <point x="159" y="556"/>
      <point x="185" y="585"/>
      <point x="198" y="585" type="qcurve"/>
      <point x="207" y="585" type="line"/>
      <point x="229" y="601"/>
      <point x="265" y="601" type="qcurve"/>
      <point x="300" y="601"/>
      <point x="326" y="583" type="qcurve"/>
      <point x="380" y="548"/>
      <point x="380" y="463" type="qcurve"/>
      <point x="380" y="406"/>
      <point x="346" y="363" type="qcurve"/>
      <point x="307" y="315"/>
    </contour>
  </outline>
</glyph>
<glyph name="tsmallmod" format="2">
  <advance width="500" height="1000"/>
  <unicode hex="1D57"/>
  <outline>
    <contour>
      <point x="275" y="313" type="qcurve"/>
      <point x="237" y="313"/>
      <point x="202" y="357"/>
      <point x="202" y="398" type="qcurve"/>
      <point x="202" y="541" type="line"/>
      <point x="174" y="541"/>
      <point x="164" y="540" type="qcurve"/>
      <point x="147" y="540"/>
      <point x="137" y="566"/>
      <point x="137" y="575" type="qcurve"/>
      <point x="137" y="602"/>
      <point x="161" y="602" type="qcurve"/>
      <point x="202" y="602" type="line"/>
      <point x="201" y="672" type="line"/>
      <point x="201" y="691"/>
      <point x="224" y="691" type="qcurve"/>
      <point x="236" y="691"/>
      <point x="268" y="680"/>
      <point x="268" y="661" type="qcurve"/>
      <point x="267" y="601" type="line"/>
      <point x="331" y="601"/>
      <point x="353" y="603" type="qcurve"/>
      <point x="369" y="603"/>
      <point x="380" y="577"/>
      <point x="380" y="567" type="qcurve"/>
      <point x="380" y="540"/>
      <point x="357" y="540" type="qcurve"/>
      <point x="345" y="540"/>
      <point x="324" y="541"/>
      <point x="267" y="541" type="qcurve"/>
      <point x="267" y="397" type="line"/>
      <point x="267" y="381"/>
      <point x="270" y="376"/>
      <point x="281" y="376" type="qcurve"/>
      <point x="302" y="376"/>
      <point x="339" y="397" type="qcurve"/>
      <point x="352" y="406"/>
      <point x="360" y="406" type="qcurve"/>
      <point x="377" y="406"/>
      <point x="377" y="386" type="qcurve"/>
      <point x="377" y="365"/>
      <point x="306" y="313"/>
    </contour>
  </outline>
</glyph>
<glyph name="vsmallmod" format="2">
  <advance width="500" height="1000"/>
  <unicode hex="1D5B"/>
  <outline>
    <contour>
      <point x="251" y="315" type="qcurve"/>
      <point x="234" y="315"/>
      <point x="221" y="329" type="qcurve"/>
      <point x="215" y="335"/>
      <point x="211" y="347"/>
      <point x="207" y="357" type="qcurve"/>
      <point x="143" y="529" type="line"/>
      <point x="140" y="537"/>
      <point x="126" y="566"/>
      <point x="126" y="571" type="qcurve"/>
      <point x="126" y="596"/>
      <point x="168" y="596" type="qcurve"/>
      <point x="194" y="596"/>
      <point x="201" y="559"/>
      <point x="248" y="429" type="qcurve"/>
      <point x="302" y="561"/>
      <point x="308" y="583" type="qcurve"/>
      <point x="314" y="599"/>
      <point x="333" y="599" type="qcurve"/>
      <point x="346" y="599"/>
      <point x="376" y="584"/>
      <point x="376" y="564" type="qcurve"/>
      <point x="358" y="526" type="line"/>
      <point x="287" y="359"/>
      <point x="273" y="315"/>
    </contour>
  </outline>
</glyph>
<glyph name="iinferior" format="2">
  <advance width="500" height="1000"/>
  <unicode hex="1D62"/>
  <outline>
    <contour>
      <point x="160" y="-30" type="qcurve"/>
      <point x="143" y="-30"/>
      <point x="128" y="2"/>
      <point x="128" y="13" type="qcurve"/>
      <point x="128" y="34"/>
      <point x="148" y="34" type="qcurve"/>
      <point x="219" y="34" type="line"/>
      <point x="220" y="54"/>
      <point x="220" y="205" type="qcurve"/>
      <point x="207" y="203"/>
      <point x="178" y="203"/>
      <point x="170" y="202" type="qcurve"/>
      <point x="154" y="202"/>
      <point x="139" y="235"/>
      <point x="139" y="246" type="qcurve"/>
      <point x="139" y="267"/>
      <point x="159" y="267" type="qcurve"/>
      <point x="181" y="263"/>
      <point x="186" y="263" type="qcurve"/>
      <point x="228" y="263"/>
      <point x="250" y="270" type="qcurve"/>
      <point x="273" y="270"/>
      <point x="284" y="246" type="qcurve"/>
      <point x="289" y="236"/>
      <point x="289" y="230" type="qcurve"/>
      <point x="289" y="224"/>
      <point x="285" y="216"/>
      <point x="285" y="209" type="qcurve"/>
      <point x="285" y="66"/>
      <point x="286" y="35" type="qcurve"/>
      <point x="336" y="35"/>
      <point x="344" y="36" type="qcurve"/>
      <point x="361" y="36"/>
      <point x="375" y="3"/>
      <point x="375" y="-8" type="qcurve"/>
      <point x="375" y="-29"/>
      <point x="355" y="-29" type="qcurve"/>
      <point x="333" y="-25"/>
      <point x="285" y="-25" type="qcurve"/>
      <point x="201" y="-25"/>
    </contour>
    <contour>
      <point x="251" y="293" type="qcurve"/>
      <point x="234" y="293"/>
      <point x="210" y="325"/>
      <point x="210" y="341" type="qcurve"/>
      <point x="210" y="357"/>
      <point x="231" y="382"/>
      <point x="251" y="382" type="qcurve"/>
      <point x="268" y="382"/>
      <point x="291" y="349"/>
      <point x="291" y="332" type="qcurve"/>
      <point x="291" y="317"/>
      <point x="270" y="293"/>
    </contour>
  </outline>
</glyph>
<glyph name="uinferior" format="2">
  <advance width="500" height="1000"/>
  <unicode hex="1D64"/>
  <outline>
    <contour>
      <point x="225" y="-13" type="qcurve"/>
      <point x="133" y="-13"/>
      <point x="133" y="97" type="qcurve"/>
      <point x="133" y="196"/>
      <point x="131" y="249" type="qcurve"/>
      <point x="131" y="270"/>
      <point x="156" y="270" type="qcurve"/>
      <point x="168" y="270"/>
      <point x="200" y="257"/>
      <point x="200" y="240" type="qcurve"/>
      <point x="199" y="196" type="line"/>
      <point x="199" y="99" type="line"/>
      <point x="199" y="75"/>
      <point x="213" y="49"/>
      <point x="224" y="49" type="qcurve"/>
      <point x="238" y="49"/>
      <point x="272" y="76"/>
      <point x="300" y="132"/>
      <point x="300" y="183" type="qcurve"/>
      <point x="300" y="249" type="line"/>
      <point x="300" y="270"/>
      <point x="325" y="270" type="qcurve"/>
      <point x="338" y="270"/>
      <point x="369" y="258"/>
      <point x="369" y="241" type="qcurve"/>
      <point x="369" y="239" type="line"/>
      <point x="363" y="203"/>
      <point x="363" y="132" type="qcurve"/>
      <point x="363" y="65"/>
      <point x="382" y="34" type="qcurve"/>
      <point x="382" y="28"/>
      <point x="382" y="15"/>
      <point x="361" y="-11"/>
      <point x="345" y="-11" type="qcurve"/>
      <point x="315" y="-11"/>
      <point x="311" y="21" type="qcurve"/>
      <point x="312" y="44" type="line"/>
      <point x="308" y="23"/>
      <point x="260" y="-13"/>
    </contour>
  </outline>
</glyph>
<glyph name="vinferior" format="2">
  <advance width="500" height="1000"/>
  <unicode hex="1D65"/>
  <outline>
    <contour>
      <point x="251" y="-13" type="qcurve"/>
      <point x="234" y="-13"/>
      <point x="221" y="1" type="qcurve"/>
      <point x="215" y="7"/>
      <point x="211" y="19"/>
      <point x="207" y="29" type="qcurve"/>
      <point x="143" y="201" type="line"/>
      <point x="140" y="209"/>
      <point x="126" y="238"/>
      <point x="126" y="243" type="qcurve"/>
      <point x="126" y="268"/>
      <point x="168" y="268" type="qcurve"/>
      <point x="194" y="268"/>
      <point x="201" y="231"/>
      <point x="248" y="101" type="qcurve"/>
      <point x="302" y="233"/>
      <point x="308" y="255" type="qcurve"/>
      <point x="314" y="271"/>
      <point x="333" y="271" type="qcurve"/>
      <point x="346" y="271"/>
      <point x="376" y="256"/>
      <point x="376" y="236" type="qcurve"/>
      <point x="358" y="198" type="line"/>
      <point x="287" y="31"/>
      <point x="273" y="-13"/>
    </contour>
  </outline>
</glyph>
<glyph name="csmallmod" format="2">
  <advance width="500" height="1000"/>
  <unicode hex="1D9C"/>
  <outline>
    <contour>
      <point x="243" y="315" type="qcurve"/>
      <point x="213" y="315"/>
      <point x="161" y="343"/>
      <point x="130" y="399"/>
      <point x="130" y="435" type="qcurve"/>
      <point x="130" y="470"/>
      <point x="155" y="529"/>
      <point x="196" y="573"/>
      <point x="248" y="599"/>
      <point x="273" y="599" type="qcurve"/>
      <point x="298" y="599"/>
      <point x="332" y="585"/>
      <point x="353" y="565"/>
      <point x="363" y="546"/>
      <point x="363" y="540" type="qcurve"/>
      <point x="363" y="525"/>
      <point x="339" y="501"/>
      <point x="328" y="501" type="qcurve"/>
      <point x="312" y="501"/>
      <point x="304" y="520"/>
      <point x="299" y="529"/>
      <point x="297" y="529" type="qcurve"/>
      <point x="286" y="537"/>
      <point x="276" y="537" type="qcurve"/>
      <point x="251" y="537"/>
      <point x="196" y="478"/>
      <point x="196" y="439" type="qcurve"/>
      <point x="196" y="417"/>
      <point x="204" y="404" type="qcurve"/>
      <point x="219" y="376"/>
      <point x="247" y="376" type="qcurve"/>
      <point x="288" y="376"/>
      <point x="334" y="421" type="qcurve"/>
      <point x="345" y="433"/>
      <point x="357" y="433" type="qcurve"/>
      <point x="377" y="433"/>
      <point x="377" y="413" type="qcurve"/>
      <point x="377" y="404"/>
      <point x="360" y="373"/>
      <point x="345" y="357" type="qcurve"/>
      <point x="304" y="315"/>
    </contour>
  </outline>
</glyph>
<glyph name="fsmallmod" format="2">
  <advance width="500" height="1000"/>
  <unicode hex="1DA0"/>
  <outline>
    <contour>
      <point x="252" y="318" type="qcurve"/>
      <point x="241" y="318"/>
      <point x="209" y="330"/>
      <point x="209" y="348" type="qcurve"/>
      <point x="209" y="355"/>
      <point x="210" y="386"/>
      <point x="210" y="536" type="qcurve"/>
      <point x="175" y="536"/>
      <point x="166" y="535" type="qcurve"/>
      <point x="138" y="535"/>
      <point x="138" y="570" type="qcurve"/>
      <point x="138" y="598"/>
      <point x="163" y="598" type="qcurve"/>
      <point x="210" y="597" type="line"/>
      <point x="210" y="634" type="line"/>
      <point x="210" y="683"/>
      <point x="254" y="702" type="qcurve"/>
      <point x="273" y="710"/>
      <point x="291" y="710" type="qcurve"/>
      <point x="314" y="710"/>
      <point x="346" y="697"/>
      <point x="367" y="676"/>
      <point x="367" y="663" type="qcurve"/>
      <point x="367" y="649"/>
      <point x="349" y="624"/>
      <point x="336" y="624" type="qcurve"/>
      <point x="327" y="624"/>
      <point x="309" y="647"/>
      <point x="291" y="647" type="qcurve"/>
      <point x="283" y="647"/>
      <point x="275" y="640"/>
      <point x="275" y="632" type="qcurve"/>
      <point x="275" y="597" type="line"/>
      <point x="316" y="597"/>
      <point x="335" y="599" type="qcurve"/>
      <point x="364" y="599"/>
      <point x="364" y="563" type="qcurve"/>
      <point x="364" y="535"/>
      <point x="340" y="535" type="qcurve"/>
      <point x="330" y="535"/>
      <point x="311" y="536"/>
      <point x="275" y="536" type="qcurve"/>
      <point x="275" y="377"/>
      <point x="277" y="348"/>
      <point x="277" y="339" type="qcurve"/>
      <point x="277" y="318"/>
    </contour>
  </outline>
</glyph>
<glyph name="zsmallmod" format="2">
  <advance width="500" height="1000"/>
  <unicode hex="1DBB"/>
  <outline>
    <contour>
      <point x="161" y="319" type="qcurve"/>
      <point x="147" y="319"/>
      <point x="130" y="345"/>
      <point x="130" y="357" type="qcurve"/>
      <point x="130" y="367"/>
      <point x="137" y="382"/>
      <point x="150" y="391"/>
      <point x="161" y="406" type="qcurve"/>
      <point x="223" y="489"/>
      <point x="258" y="528" type="qcurve"/>
      <point x="213" y="525"/>
      <point x="190" y="522" type="qcurve"/>
      <point x="167" y="522"/>
      <point x="156" y="549" type="qcurve"/>
      <point x="152" y="559"/>
      <point x="152" y="567" type="qcurve"/>
      <point x="152" y="588"/>
      <point x="172" y="588" type="qcurve"/>
      <point x="196" y="587" type="line"/>
      <point x="216" y="587"/>
      <point x="221" y="588" type="qcurve"/>
      <point x="299" y="593"/>
      <point x="318" y="596" type="qcurve"/>
      <point x="340" y="596"/>
      <point x="355" y="573" type="qcurve"/>
      <point x="361" y="563"/>
      <point x="361" y="554" type="qcurve"/>
      <point x="361" y="540"/>
      <point x="343" y="531"/>
      <point x="341" y="529" type="qcurve"/>
      <point x="267" y="443"/>
      <point x="225" y="386" type="qcurve"/>
      <point x="338" y="386" type="line"/>
      <point x="353" y="386"/>
      <point x="368" y="356"/>
      <point x="368" y="344" type="qcurve"/>
      <point x="368" y="320"/>
      <point x="346" y="320" type="qcurve"/>
      <point x="305" y="323" type="line"/>
      <point x="239" y="323" type="line"/>
      <point x="195" y="323"/>
      <point x="168" y="319"/>
    </contour>
  </outline>
</glyph>
<glyph name="Vmod" format="2">
  <advance width="500" height="1000"/>
  <unicode hex="2C7D"/>
  <outline>
    <contour>
      <point x="255" y="315" type="qcurve"/>
      <point x="241" y="315"/>
      <point x="215" y="338"/>
      <point x="199" y="386"/>
      <point x="186" y="423" type="qcurve"/>
      <point x="112" y="627"/>
      <point x="85" y="680" type="qcurve"/>
      <point x="85" y="708"/>
      <point x="120" y="708" type="qcurve"/>
      <point x="131" y="708"/>
      <point x="157" y="699"/>
      <point x="160" y="686" type="qcurve"/>
      <point x="162" y="675"/>
      <point x="207" y="560"/>
      <point x="249" y="437" type="qcurve"/>
      <point x="297" y="566"/>
      <point x="343" y="678"/>
      <point x="347" y="695" type="qcurve"/>
      <point x="353" y="711"/>
      <point x="372" y="711" type="qcurve"/>
      <point x="384" y="711"/>
      <point x="416" y="692"/>
      <point x="416" y="676" type="qcurve"/>
      <point x="416" y="670"/>
      <point x="402" y="647"/>
      <point x="397" y="634" type="qcurve"/>
      <point x="294" y="389"/>
      <point x="284" y="340" type="qcurve"/>
      <point x="280" y="315"/>
    </contour>
  </outline>
</glyph>
<glyph name="Cmod" format="2">
  <advance width="500" height="1000"/>
  <unicode hex="A7F2"/>
  <outline>
    <contour>
      <point x="253" y="315" type="qcurve"/>
      <point x="207" y="315"/>
      <point x="129" y="351"/>
      <point x="84" y="427"/>
      <point x="84" y="481" type="qcurve"/>
      <point x="84" y="533"/>
      <point x="113" y="615"/>
      <point x="166" y="677"/>
      <point x="237" y="712"/>
      <point x="279" y="712" type="qcurve"/>
      <point x="360" y="712"/>
      <point x="402" y="663" type="qcurve"/>
      <point x="406" y="656"/>
      <point x="406" y="647" type="qcurve"/>
      <point x="406" y="636"/>
      <point x="385" y="608"/>
      <point x="371" y="608" type="qcurve"/>
      <point x="357" y="608"/>
      <point x="349" y="620" type="qcurve"/>
      <point x="331" y="648"/>
      <point x="279" y="648" type="qcurve"/>
      <point x="227" y="648"/>
      <point x="152" y="558"/>
      <point x="152" y="484" type="qcurve"/>
      <point x="152" y="414"/>
      <point x="201" y="390" type="qcurve"/>
      <point x="225" y="378"/>
      <point x="250" y="378" type="qcurve"/>
      <point x="276" y="378"/>
      <point x="323" y="394"/>
      <point x="366" y="424"/>
      <point x="380" y="442" type="qcurve"/>
      <point x="391" y="456"/>
      <point x="405" y="456" type="qcurve"/>
      <point x="428" y="456"/>
      <point x="428" y="433" type="qcurve"/>
      <point x="428" y="423"/>
      <point x="419" y="407" type="qcurve"/>
      <point x="400" y="374"/>
      <point x="362" y="349" type="qcurve"/>
      <point x="313" y="315"/>
    </contour>
  </outline>
</glyph>
<glyph name="Fmod" format="2">
  <advance width="500" height="1000"/>
  <unicode hex="A7F3"/>
  <outline>
    <contour>
      <point x="185" y="319" type="qcurve"/>
      <point x="173" y="319"/>
      <point x="141" y="332"/>
      <point x="141" y="349" type="qcurve"/>
      <point x="142" y="394" type="line"/>
      <point x="142" y="503" type="line"/>
      <point x="140" y="504"/>
      <point x="128" y="528"/>
      <point x="128" y="536" type="qcurve"/>
      <point x="128" y="557"/>
      <point x="142" y="558" type="qcurve"/>
      <point x="142" y="657" type="line"/>
      <point x="140" y="682" type="line"/>
      <point x="140" y="705"/>
      <point x="163" y="705" type="qcurve"/>
      <point x="173" y="705"/>
      <point x="191" y="699" type="qcurve"/>
      <point x="324" y="708" type="line"/>
      <point x="367" y="712" type="line"/>
      <point x="383" y="712"/>
      <point x="399" y="683"/>
      <point x="399" y="670" type="qcurve"/>
      <point x="399" y="646"/>
      <point x="377" y="646" type="qcurve"/>
      <point x="325" y="646"/>
      <point x="209" y="638" type="qcurve"/>
      <point x="209" y="558" type="line"/>
      <point x="296" y="564" type="line"/>
      <point x="307" y="565"/>
      <point x="333" y="568"/>
      <point x="340" y="568" type="qcurve"/>
      <point x="356" y="568"/>
      <point x="372" y="539"/>
      <point x="372" y="526" type="qcurve"/>
      <point x="372" y="502"/>
      <point x="349" y="502" type="qcurve"/>
      <point x="298" y="502"/>
      <point x="209" y="497" type="qcurve"/>
      <point x="209" y="393"/>
      <point x="210" y="340" type="qcurve"/>
      <point x="210" y="319"/>
    </contour>
  </outline>
</glyph>
<glyph name="qsmallmod" format="2">
  <advance width="500" height="1000"/>
  <unicode hex="107A5"/>
  <outline>
    <contour>
      <point x="213" y="377" type="qcurve"/>
      <point x="242" y="377"/>
      <point x="299" y="438"/>
      <point x="299" y="478" type="qcurve"/>
      <point x="299" y="514" type="line"/>
      <point x="297" y="515"/>
      <point x="292" y="522" type="qcurve"/>
      <point x="281" y="538"/>
      <point x="257" y="538" type="qcurve"/>
      <point x="246" y="538"/>
      <point x="219" y="521"/>
      <point x="208" y="506" type="qcurve"/>
      <point x="184" y="473"/>
      <point x="184" y="438" type="qcurve"/>
      <point x="184" y="403"/>
      <point x="203" y="377"/>
    </contour>
    <contour>
      <point x="341" y="236" type="qcurve"/>
      <point x="329" y="236"/>
      <point x="298" y="248"/>
      <point x="298" y="266" type="qcurve"/>
      <point x="300" y="310" type="line"/>
      <point x="300" y="360" type="line"/>
      <point x="268" y="315"/>
      <point x="213" y="315" type="qcurve"/>
      <point x="172" y="315"/>
      <point x="118" y="378"/>
      <point x="118" y="433" type="qcurve"/>
      <point x="118" y="498"/>
      <point x="202" y="599"/>
      <point x="259" y="599" type="qcurve"/>
      <point x="286" y="599"/>
      <point x="300" y="590" type="qcurve"/>
      <point x="301" y="598"/>
      <point x="323" y="598" type="qcurve"/>
      <point x="335" y="598"/>
      <point x="366" y="586"/>
      <point x="366" y="568" type="qcurve"/>
      <point x="365" y="524" type="line"/>
      <point x="365" y="310" type="line"/>
      <point x="366" y="257" type="line"/>
      <point x="366" y="236"/>
    </contour>
  </outline>
</glyph>
